<?xml version="1.0" standalone="no"?>
<!DOCTYPE svg PUBLIC "-//W3C//DTD SVG 1.1//EN" "http://www.w3.org/Graphics/SVG/1.1/DTD/svg11.dtd">
<svg width="200mm" height="200mm" viewBox="0 -200 200 200" xmlns="http://www.w3.org/2000/svg" version="1.1">
<title>OpenSCAD Model</title>
<path d="
M 80,-200 L 60,-200 L 60,-180 L 80,-180 z
M 120,-200 L 100,-200 L 100,-180 L 120,-180 z
M 200,-200 L 180,-200 L 180,-180 L 200,-180 z
M 40,-200 L 20,-200 L 20,-180 L 40,-180 z
M 160,-200 L 140,-200 L 140,-180 L 160,-180 z
M 100,-180 L 80,-180 L 80,-160 L 100,-160 z
M 140,-180 L 120,-180 L 120,-160 L 140,-160 z
M 60,-180 L 40,-180 L 40,-160 L 60,-160 z
M 180,-180 L 160,-180 L 160,-160 L 180,-160 z
M 20,-180 L 0,-180 L 0,-160 L 20,-160 z
M 160,-160 L 140,-160 L 140,-140 L 160,-140 z
M 40,-160 L 20,-160 L 20,-140 L 40,-140 z
M 120,-160 L 100,-160 L 100,-140 L 120,-140 z
M 200,-160 L 180,-160 L 180,-140 L 200,-140 z
M 80,-160 L 60,-160 L 60,-140 L 80,-140 z
M 140,-140 L 120,-140 L 120,-120 L 140,-120 z
M 180,-140 L 160,-140 L 160,-120 L 180,-120 z
M 100,-140 L 80,-140 L 80,-120 L 100,-120 z
M 20,-140 L 0,-140 L 0,-120 L 20,-120 z
M 60,-140 L 40,-140 L 40,-120 L 60,-120 z
M 80,-120 L 60,-120 L 60,-100 L 80,-100 z
M 40,-120 L 20,-120 L 20,-100 L 40,-100 z
M 160,-120 L 140,-120 L 140,-100 L 160,-100 z
M 120,-120 L 100,-120 L 100,-100 L 120,-100 z
M 200,-120 L 180,-120 L 180,-100 L 200,-100 z
M 60,-100 L 40,-100 L 40,-80 L 60,-80 z
M 180,-100 L 160,-100 L 160,-80 L 180,-80 z
M 20,-100 L 0,-100 L 0,-80 L 20,-80 z
M 140,-100 L 120,-100 L 120,-80 L 140,-80 z
M 100,-100 L 80,-100 L 80,-80 L 100,-80 z
M 120,-80 L 100,-80 L 100,-60 L 120,-60 z
M 200,-80 L 180,-80 L 180,-60 L 200,-60 z
M 40,-80 L 20,-80 L 20,-60 L 40,-60 z
M 160,-80 L 140,-80 L 140,-60 L 160,-60 z
M 80,-80 L 60,-80 L 60,-60 L 80,-60 z
M 60,-60 L 40,-60 L 40,-40 L 60,-40 z
M 140,-60 L 120,-60 L 120,-40 L 140,-40 z
M 20,-60 L 0,-60 L 0,-40 L 20,-40 z
M 100,-60 L 80,-60 L 80,-40 L 100,-40 z
M 180,-60 L 160,-60 L 160,-40 L 180,-40 z
M 200,-40 L 180,-40 L 180,-20 L 200,-20 z
M 80,-40 L 60,-40 L 60,-20 L 80,-20 z
M 160,-40 L 140,-40 L 140,-20 L 160,-20 z
M 40,-40 L 20,-40 L 20,-20 L 40,-20 z
M 120,-40 L 100,-40 L 100,-20 L 120,-20 z
M 20,-20 L 0,-20 L 0,-0 L 20,-0 z
M 180,-20 L 160,-20 L 160,-0 L 180,-0 z
M 140,-20 L 120,-20 L 120,-0 L 140,-0 z
M 60,-20 L 40,-20 L 40,-0 L 60,-0 z
M 100,-20 L 80,-20 L 80,-0 L 100,-0 z
" stroke="black" fill="lightgray" stroke-width="0.5"/>
</svg>
