<?xml version="1.0" standalone="no"?>
<!DOCTYPE svg PUBLIC "-//W3C//DTD SVG 1.1//EN" "http://www.w3.org/Graphics/SVG/1.1/DTD/svg11.dtd">
<svg width="209mm" height="209mm" viewBox="0 -209 209 209" xmlns="http://www.w3.org/2000/svg" version="1.1">
<title>OpenSCAD Model</title>
<path d="
M 146,-209 L 126,-209 L 126,-189 L 146,-189 z
M 62,-209 L 42,-209 L 42,-189 L 62,-189 z
M 83,-209 L 63,-209 L 63,-189 L 83,-189 z
M 104,-209 L 84,-209 L 84,-189 L 104,-189 z
M 125,-209 L 105,-209 L 105,-189 L 125,-189 z
M 41,-209 L 21,-209 L 21,-189 L 41,-189 z
M 167,-209 L 147,-209 L 147,-189 L 167,-189 z
M 188,-209 L 168,-209 L 168,-189 L 188,-189 z
M 209,-209 L 189,-209 L 189,-189 L 209,-189 z
M 20,-209 L 0,-209 L 0,-189 L 20,-189 z
M 167,-188 L 147,-188 L 147,-168 L 167,-168 z
M 146,-188 L 126,-188 L 126,-168 L 146,-168 z
M 20,-188 L 0,-188 L 0,-168 L 20,-168 z
M 125,-188 L 105,-188 L 105,-168 L 125,-168 z
M 188,-188 L 168,-188 L 168,-168 L 188,-168 z
M 104,-188 L 84,-188 L 84,-168 L 104,-168 z
M 83,-188 L 63,-188 L 63,-168 L 83,-168 z
M 209,-188 L 189,-188 L 189,-168 L 209,-168 z
M 62,-188 L 42,-188 L 42,-168 L 62,-168 z
M 41,-188 L 21,-188 L 21,-168 L 41,-168 z
M 20,-167 L 0,-167 L 0,-147 L 20,-147 z
M 104,-167 L 84,-167 L 84,-147 L 104,-147 z
M 167,-167 L 147,-167 L 147,-147 L 167,-147 z
M 146,-167 L 126,-167 L 126,-147 L 146,-147 z
M 83,-167 L 63,-167 L 63,-147 L 83,-147 z
M 41,-167 L 21,-167 L 21,-147 L 41,-147 z
M 188,-167 L 168,-167 L 168,-147 L 188,-147 z
M 209,-167 L 189,-167 L 189,-147 L 209,-147 z
M 62,-167 L 42,-167 L 42,-147 L 62,-147 z
M 125,-167 L 105,-167 L 105,-147 L 125,-147 z
M 209,-146 L 189,-146 L 189,-126 L 209,-126 z
M 104,-146 L 84,-146 L 84,-126 L 104,-126 z
M 41,-146 L 21,-146 L 21,-126 L 41,-126 z
M 20,-146 L 0,-146 L 0,-126 L 20,-126 z
M 167,-146 L 147,-146 L 147,-126 L 167,-126 z
M 146,-146 L 126,-146 L 126,-126 L 146,-126 z
M 83,-146 L 63,-146 L 63,-126 L 83,-126 z
M 62,-146 L 42,-146 L 42,-126 L 62,-126 z
M 125,-146 L 105,-146 L 105,-126 L 125,-126 z
M 188,-146 L 168,-146 L 168,-126 L 188,-126 z
M 146,-125 L 126,-125 L 126,-105 L 146,-105 z
M 125,-125 L 105,-125 L 105,-105 L 125,-105 z
M 209,-125 L 189,-125 L 189,-105 L 209,-105 z
M 167,-125 L 147,-125 L 147,-105 L 167,-105 z
M 104,-125 L 84,-125 L 84,-105 L 104,-105 z
M 41,-125 L 21,-125 L 21,-105 L 41,-105 z
M 83,-125 L 63,-125 L 63,-105 L 83,-105 z
M 20,-125 L 0,-125 L 0,-105 L 20,-105 z
M 188,-125 L 168,-125 L 168,-105 L 188,-105 z
M 62,-125 L 42,-125 L 42,-105 L 62,-105 z
M 146,-104 L 126,-104 L 126,-84 L 146,-84 z
M 125,-104 L 105,-104 L 105,-84 L 125,-84 z
M 167,-104 L 147,-104 L 147,-84 L 167,-84 z
M 20,-104 L 0,-104 L 0,-84 L 20,-84 z
M 188,-104 L 168,-104 L 168,-84 L 188,-84 z
M 209,-104 L 189,-104 L 189,-84 L 209,-84 z
M 62,-104 L 42,-104 L 42,-84 L 62,-84 z
M 83,-104 L 63,-104 L 63,-84 L 83,-84 z
M 104,-104 L 84,-104 L 84,-84 L 104,-84 z
M 41,-104 L 21,-104 L 21,-84 L 41,-84 z
M 104,-83 L 84,-83 L 84,-63 L 104,-63 z
M 83,-83 L 63,-83 L 63,-63 L 83,-63 z
M 167,-83 L 147,-83 L 147,-63 L 167,-63 z
M 20,-83 L 0,-83 L 0,-63 L 20,-63 z
M 41,-83 L 21,-83 L 21,-63 L 41,-63 z
M 146,-83 L 126,-83 L 126,-63 L 146,-63 z
M 62,-83 L 42,-83 L 42,-63 L 62,-63 z
M 188,-83 L 168,-83 L 168,-63 L 188,-63 z
M 209,-83 L 189,-83 L 189,-63 L 209,-63 z
M 125,-83 L 105,-83 L 105,-63 L 125,-63 z
M 125,-62 L 105,-62 L 105,-42 L 125,-42 z
M 62,-62 L 42,-62 L 42,-42 L 62,-42 z
M 188,-62 L 168,-62 L 168,-42 L 188,-42 z
M 167,-62 L 147,-62 L 147,-42 L 167,-42 z
M 41,-62 L 21,-62 L 21,-42 L 41,-42 z
M 20,-62 L 0,-62 L 0,-42 L 20,-42 z
M 146,-62 L 126,-62 L 126,-42 L 146,-42 z
M 209,-62 L 189,-62 L 189,-42 L 209,-42 z
M 83,-62 L 63,-62 L 63,-42 L 83,-42 z
M 104,-62 L 84,-62 L 84,-42 L 104,-42 z
M 62,-41 L 42,-41 L 42,-21 L 62,-21 z
M 41,-41 L 21,-41 L 21,-21 L 41,-21 z
M 125,-41 L 105,-41 L 105,-21 L 125,-21 z
M 188,-41 L 168,-41 L 168,-21 L 188,-21 z
M 20,-41 L 0,-41 L 0,-21 L 20,-21 z
M 104,-41 L 84,-41 L 84,-21 L 104,-21 z
M 146,-41 L 126,-41 L 126,-21 L 146,-21 z
M 167,-41 L 147,-41 L 147,-21 L 167,-21 z
M 209,-41 L 189,-41 L 189,-21 L 209,-21 z
M 83,-41 L 63,-41 L 63,-21 L 83,-21 z
M 41,-20 L 21,-20 L 21,-0 L 41,-0 z
M 209,-20 L 189,-20 L 189,-0 L 209,-0 z
M 188,-20 L 168,-20 L 168,-0 L 188,-0 z
M 167,-20 L 147,-20 L 147,-0 L 167,-0 z
M 146,-20 L 126,-20 L 126,-0 L 146,-0 z
M 20,-20 L 0,-20 L 0,-0 L 20,-0 z
M 125,-20 L 105,-20 L 105,-0 L 125,-0 z
M 104,-20 L 84,-20 L 84,-0 L 104,-0 z
M 83,-20 L 63,-20 L 63,-0 L 83,-0 z
M 62,-20 L 42,-20 L 42,-0 L 62,-0 z
" stroke="black" fill="lightgray" stroke-width="0.5"/>
</svg>
