  0
SECTION
  2
BLOCKS
  0
ENDSEC
  0
SECTION
  2
ENTITIES
  0
LINE
  8
0
 10
80
 20
200
 11
60
 21
200
  0
LINE
  8
0
 10
60
 20
200
 11
60
 21
180
  0
LINE
  8
0
 10
60
 20
180
 11
80
 21
180
  0
LINE
  8
0
 10
80
 20
180
 11
80
 21
200
  0
LINE
  8
0
 10
120
 20
200
 11
100
 21
200
  0
LINE
  8
0
 10
100
 20
200
 11
100
 21
180
  0
LINE
  8
0
 10
100
 20
180
 11
120
 21
180
  0
LINE
  8
0
 10
120
 20
180
 11
120
 21
200
  0
LINE
  8
0
 10
200
 20
200
 11
180
 21
200
  0
LINE
  8
0
 10
180
 20
200
 11
180
 21
180
  0
LINE
  8
0
 10
180
 20
180
 11
200
 21
180
  0
LINE
  8
0
 10
200
 20
180
 11
200
 21
200
  0
LINE
  8
0
 10
40
 20
200
 11
20
 21
200
  0
LINE
  8
0
 10
20
 20
200
 11
20
 21
180
  0
LINE
  8
0
 10
20
 20
180
 11
40
 21
180
  0
LINE
  8
0
 10
40
 20
180
 11
40
 21
200
  0
LINE
  8
0
 10
160
 20
200
 11
140
 21
200
  0
LINE
  8
0
 10
140
 20
200
 11
140
 21
180
  0
LINE
  8
0
 10
140
 20
180
 11
160
 21
180
  0
LINE
  8
0
 10
160
 20
180
 11
160
 21
200
  0
LINE
  8
0
 10
100
 20
180
 11
80
 21
180
  0
LINE
  8
0
 10
80
 20
180
 11
80
 21
160
  0
LINE
  8
0
 10
80
 20
160
 11
100
 21
160
  0
LINE
  8
0
 10
100
 20
160
 11
100
 21
180
  0
LINE
  8
0
 10
140
 20
180
 11
120
 21
180
  0
LINE
  8
0
 10
120
 20
180
 11
120
 21
160
  0
LINE
  8
0
 10
120
 20
160
 11
140
 21
160
  0
LINE
  8
0
 10
140
 20
160
 11
140
 21
180
  0
LINE
  8
0
 10
60
 20
180
 11
40
 21
180
  0
LINE
  8
0
 10
40
 20
180
 11
40
 21
160
  0
LINE
  8
0
 10
40
 20
160
 11
60
 21
160
  0
LINE
  8
0
 10
60
 20
160
 11
60
 21
180
  0
LINE
  8
0
 10
180
 20
180
 11
160
 21
180
  0
LINE
  8
0
 10
160
 20
180
 11
160
 21
160
  0
LINE
  8
0
 10
160
 20
160
 11
180
 21
160
  0
LINE
  8
0
 10
180
 20
160
 11
180
 21
180
  0
LINE
  8
0
 10
20
 20
180
 11
0
 21
180
  0
LINE
  8
0
 10
0
 20
180
 11
0
 21
160
  0
LINE
  8
0
 10
0
 20
160
 11
20
 21
160
  0
LINE
  8
0
 10
20
 20
160
 11
20
 21
180
  0
LINE
  8
0
 10
160
 20
160
 11
140
 21
160
  0
LINE
  8
0
 10
140
 20
160
 11
140
 21
140
  0
LINE
  8
0
 10
140
 20
140
 11
160
 21
140
  0
LINE
  8
0
 10
160
 20
140
 11
160
 21
160
  0
LINE
  8
0
 10
40
 20
160
 11
20
 21
160
  0
LINE
  8
0
 10
20
 20
160
 11
20
 21
140
  0
LINE
  8
0
 10
20
 20
140
 11
40
 21
140
  0
LINE
  8
0
 10
40
 20
140
 11
40
 21
160
  0
LINE
  8
0
 10
120
 20
160
 11
100
 21
160
  0
LINE
  8
0
 10
100
 20
160
 11
100
 21
140
  0
LINE
  8
0
 10
100
 20
140
 11
120
 21
140
  0
LINE
  8
0
 10
120
 20
140
 11
120
 21
160
  0
LINE
  8
0
 10
200
 20
160
 11
180
 21
160
  0
LINE
  8
0
 10
180
 20
160
 11
180
 21
140
  0
LINE
  8
0
 10
180
 20
140
 11
200
 21
140
  0
LINE
  8
0
 10
200
 20
140
 11
200
 21
160
  0
LINE
  8
0
 10
80
 20
160
 11
60
 21
160
  0
LINE
  8
0
 10
60
 20
160
 11
60
 21
140
  0
LINE
  8
0
 10
60
 20
140
 11
80
 21
140
  0
LINE
  8
0
 10
80
 20
140
 11
80
 21
160
  0
LINE
  8
0
 10
140
 20
140
 11
120
 21
140
  0
LINE
  8
0
 10
120
 20
140
 11
120
 21
120
  0
LINE
  8
0
 10
120
 20
120
 11
140
 21
120
  0
LINE
  8
0
 10
140
 20
120
 11
140
 21
140
  0
LINE
  8
0
 10
180
 20
140
 11
160
 21
140
  0
LINE
  8
0
 10
160
 20
140
 11
160
 21
120
  0
LINE
  8
0
 10
160
 20
120
 11
180
 21
120
  0
LINE
  8
0
 10
180
 20
120
 11
180
 21
140
  0
LINE
  8
0
 10
100
 20
140
 11
80
 21
140
  0
LINE
  8
0
 10
80
 20
140
 11
80
 21
120
  0
LINE
  8
0
 10
80
 20
120
 11
100
 21
120
  0
LINE
  8
0
 10
100
 20
120
 11
100
 21
140
  0
LINE
  8
0
 10
20
 20
140
 11
0
 21
140
  0
LINE
  8
0
 10
0
 20
140
 11
0
 21
120
  0
LINE
  8
0
 10
0
 20
120
 11
20
 21
120
  0
LINE
  8
0
 10
20
 20
120
 11
20
 21
140
  0
LINE
  8
0
 10
60
 20
140
 11
40
 21
140
  0
LINE
  8
0
 10
40
 20
140
 11
40
 21
120
  0
LINE
  8
0
 10
40
 20
120
 11
60
 21
120
  0
LINE
  8
0
 10
60
 20
120
 11
60
 21
140
  0
LINE
  8
0
 10
80
 20
120
 11
60
 21
120
  0
LINE
  8
0
 10
60
 20
120
 11
60
 21
100
  0
LINE
  8
0
 10
60
 20
100
 11
80
 21
100
  0
LINE
  8
0
 10
80
 20
100
 11
80
 21
120
  0
LINE
  8
0
 10
40
 20
120
 11
20
 21
120
  0
LINE
  8
0
 10
20
 20
120
 11
20
 21
100
  0
LINE
  8
0
 10
20
 20
100
 11
40
 21
100
  0
LINE
  8
0
 10
40
 20
100
 11
40
 21
120
  0
LINE
  8
0
 10
160
 20
120
 11
140
 21
120
  0
LINE
  8
0
 10
140
 20
120
 11
140
 21
100
  0
LINE
  8
0
 10
140
 20
100
 11
160
 21
100
  0
LINE
  8
0
 10
160
 20
100
 11
160
 21
120
  0
LINE
  8
0
 10
120
 20
120
 11
100
 21
120
  0
LINE
  8
0
 10
100
 20
120
 11
100
 21
100
  0
LINE
  8
0
 10
100
 20
100
 11
120
 21
100
  0
LINE
  8
0
 10
120
 20
100
 11
120
 21
120
  0
LINE
  8
0
 10
200
 20
120
 11
180
 21
120
  0
LINE
  8
0
 10
180
 20
120
 11
180
 21
100
  0
LINE
  8
0
 10
180
 20
100
 11
200
 21
100
  0
LINE
  8
0
 10
200
 20
100
 11
200
 21
120
  0
LINE
  8
0
 10
60
 20
100
 11
40
 21
100
  0
LINE
  8
0
 10
40
 20
100
 11
40
 21
80
  0
LINE
  8
0
 10
40
 20
80
 11
60
 21
80
  0
LINE
  8
0
 10
60
 20
80
 11
60
 21
100
  0
LINE
  8
0
 10
180
 20
100
 11
160
 21
100
  0
LINE
  8
0
 10
160
 20
100
 11
160
 21
80
  0
LINE
  8
0
 10
160
 20
80
 11
180
 21
80
  0
LINE
  8
0
 10
180
 20
80
 11
180
 21
100
  0
LINE
  8
0
 10
20
 20
100
 11
0
 21
100
  0
LINE
  8
0
 10
0
 20
100
 11
0
 21
80
  0
LINE
  8
0
 10
0
 20
80
 11
20
 21
80
  0
LINE
  8
0
 10
20
 20
80
 11
20
 21
100
  0
LINE
  8
0
 10
140
 20
100
 11
120
 21
100
  0
LINE
  8
0
 10
120
 20
100
 11
120
 21
80
  0
LINE
  8
0
 10
120
 20
80
 11
140
 21
80
  0
LINE
  8
0
 10
140
 20
80
 11
140
 21
100
  0
LINE
  8
0
 10
100
 20
100
 11
80
 21
100
  0
LINE
  8
0
 10
80
 20
100
 11
80
 21
80
  0
LINE
  8
0
 10
80
 20
80
 11
100
 21
80
  0
LINE
  8
0
 10
100
 20
80
 11
100
 21
100
  0
LINE
  8
0
 10
120
 20
80
 11
100
 21
80
  0
LINE
  8
0
 10
100
 20
80
 11
100
 21
60
  0
LINE
  8
0
 10
100
 20
60
 11
120
 21
60
  0
LINE
  8
0
 10
120
 20
60
 11
120
 21
80
  0
LINE
  8
0
 10
200
 20
80
 11
180
 21
80
  0
LINE
  8
0
 10
180
 20
80
 11
180
 21
60
  0
LINE
  8
0
 10
180
 20
60
 11
200
 21
60
  0
LINE
  8
0
 10
200
 20
60
 11
200
 21
80
  0
LINE
  8
0
 10
40
 20
80
 11
20
 21
80
  0
LINE
  8
0
 10
20
 20
80
 11
20
 21
60
  0
LINE
  8
0
 10
20
 20
60
 11
40
 21
60
  0
LINE
  8
0
 10
40
 20
60
 11
40
 21
80
  0
LINE
  8
0
 10
160
 20
80
 11
140
 21
80
  0
LINE
  8
0
 10
140
 20
80
 11
140
 21
60
  0
LINE
  8
0
 10
140
 20
60
 11
160
 21
60
  0
LINE
  8
0
 10
160
 20
60
 11
160
 21
80
  0
LINE
  8
0
 10
80
 20
80
 11
60
 21
80
  0
LINE
  8
0
 10
60
 20
80
 11
60
 21
60
  0
LINE
  8
0
 10
60
 20
60
 11
80
 21
60
  0
LINE
  8
0
 10
80
 20
60
 11
80
 21
80
  0
LINE
  8
0
 10
60
 20
60
 11
40
 21
60
  0
LINE
  8
0
 10
40
 20
60
 11
40
 21
40
  0
LINE
  8
0
 10
40
 20
40
 11
60
 21
40
  0
LINE
  8
0
 10
60
 20
40
 11
60
 21
60
  0
LINE
  8
0
 10
140
 20
60
 11
120
 21
60
  0
LINE
  8
0
 10
120
 20
60
 11
120
 21
40
  0
LINE
  8
0
 10
120
 20
40
 11
140
 21
40
  0
LINE
  8
0
 10
140
 20
40
 11
140
 21
60
  0
LINE
  8
0
 10
20
 20
60
 11
0
 21
60
  0
LINE
  8
0
 10
0
 20
60
 11
0
 21
40
  0
LINE
  8
0
 10
0
 20
40
 11
20
 21
40
  0
LINE
  8
0
 10
20
 20
40
 11
20
 21
60
  0
LINE
  8
0
 10
100
 20
60
 11
80
 21
60
  0
LINE
  8
0
 10
80
 20
60
 11
80
 21
40
  0
LINE
  8
0
 10
80
 20
40
 11
100
 21
40
  0
LINE
  8
0
 10
100
 20
40
 11
100
 21
60
  0
LINE
  8
0
 10
180
 20
60
 11
160
 21
60
  0
LINE
  8
0
 10
160
 20
60
 11
160
 21
40
  0
LINE
  8
0
 10
160
 20
40
 11
180
 21
40
  0
LINE
  8
0
 10
180
 20
40
 11
180
 21
60
  0
LINE
  8
0
 10
200
 20
40
 11
180
 21
40
  0
LINE
  8
0
 10
180
 20
40
 11
180
 21
20
  0
LINE
  8
0
 10
180
 20
20
 11
200
 21
20
  0
LINE
  8
0
 10
200
 20
20
 11
200
 21
40
  0
LINE
  8
0
 10
80
 20
40
 11
60
 21
40
  0
LINE
  8
0
 10
60
 20
40
 11
60
 21
20
  0
LINE
  8
0
 10
60
 20
20
 11
80
 21
20
  0
LINE
  8
0
 10
80
 20
20
 11
80
 21
40
  0
LINE
  8
0
 10
160
 20
40
 11
140
 21
40
  0
LINE
  8
0
 10
140
 20
40
 11
140
 21
20
  0
LINE
  8
0
 10
140
 20
20
 11
160
 21
20
  0
LINE
  8
0
 10
160
 20
20
 11
160
 21
40
  0
LINE
  8
0
 10
40
 20
40
 11
20
 21
40
  0
LINE
  8
0
 10
20
 20
40
 11
20
 21
20
  0
LINE
  8
0
 10
20
 20
20
 11
40
 21
20
  0
LINE
  8
0
 10
40
 20
20
 11
40
 21
40
  0
LINE
  8
0
 10
120
 20
40
 11
100
 21
40
  0
LINE
  8
0
 10
100
 20
40
 11
100
 21
20
  0
LINE
  8
0
 10
100
 20
20
 11
120
 21
20
  0
LINE
  8
0
 10
120
 20
20
 11
120
 21
40
  0
LINE
  8
0
 10
20
 20
20
 11
0
 21
20
  0
LINE
  8
0
 10
0
 20
20
 11
0
 21
0
  0
LINE
  8
0
 10
0
 20
0
 11
20
 21
0
  0
LINE
  8
0
 10
20
 20
0
 11
20
 21
20
  0
LINE
  8
0
 10
180
 20
20
 11
160
 21
20
  0
LINE
  8
0
 10
160
 20
20
 11
160
 21
0
  0
LINE
  8
0
 10
160
 20
0
 11
180
 21
0
  0
LINE
  8
0
 10
180
 20
0
 11
180
 21
20
  0
LINE
  8
0
 10
140
 20
20
 11
120
 21
20
  0
LINE
  8
0
 10
120
 20
20
 11
120
 21
0
  0
LINE
  8
0
 10
120
 20
0
 11
140
 21
0
  0
LINE
  8
0
 10
140
 20
0
 11
140
 21
20
  0
LINE
  8
0
 10
60
 20
20
 11
40
 21
20
  0
LINE
  8
0
 10
40
 20
20
 11
40
 21
0
  0
LINE
  8
0
 10
40
 20
0
 11
60
 21
0
  0
LINE
  8
0
 10
60
 20
0
 11
60
 21
20
  0
LINE
  8
0
 10
100
 20
20
 11
80
 21
20
  0
LINE
  8
0
 10
80
 20
20
 11
80
 21
0
  0
LINE
  8
0
 10
80
 20
0
 11
100
 21
0
  0
LINE
  8
0
 10
100
 20
0
 11
100
 21
20
  0
ENDSEC
  0
SECTION
  2
OBJECTS
  0
DICTIONARY
  0
ENDSEC
  0
EOF
