  0
SECTION
  2
BLOCKS
  0
ENDSEC
  0
SECTION
  2
ENTITIES
  0
LINE
  8
0
 10
146
 20
209
 11
126
 21
209
  0
LINE
  8
0
 10
126
 20
209
 11
126
 21
189
  0
LINE
  8
0
 10
126
 20
189
 11
146
 21
189
  0
LINE
  8
0
 10
146
 20
189
 11
146
 21
209
  0
LINE
  8
0
 10
62
 20
209
 11
42
 21
209
  0
LINE
  8
0
 10
42
 20
209
 11
42
 21
189
  0
LINE
  8
0
 10
42
 20
189
 11
62
 21
189
  0
LINE
  8
0
 10
62
 20
189
 11
62
 21
209
  0
LINE
  8
0
 10
83
 20
209
 11
63
 21
209
  0
LINE
  8
0
 10
63
 20
209
 11
63
 21
189
  0
LINE
  8
0
 10
63
 20
189
 11
83
 21
189
  0
LINE
  8
0
 10
83
 20
189
 11
83
 21
209
  0
LINE
  8
0
 10
104
 20
209
 11
84
 21
209
  0
LINE
  8
0
 10
84
 20
209
 11
84
 21
189
  0
LINE
  8
0
 10
84
 20
189
 11
104
 21
189
  0
LINE
  8
0
 10
104
 20
189
 11
104
 21
209
  0
LINE
  8
0
 10
125
 20
209
 11
105
 21
209
  0
LINE
  8
0
 10
105
 20
209
 11
105
 21
189
  0
LINE
  8
0
 10
105
 20
189
 11
125
 21
189
  0
LINE
  8
0
 10
125
 20
189
 11
125
 21
209
  0
LINE
  8
0
 10
41
 20
209
 11
21
 21
209
  0
LINE
  8
0
 10
21
 20
209
 11
21
 21
189
  0
LINE
  8
0
 10
21
 20
189
 11
41
 21
189
  0
LINE
  8
0
 10
41
 20
189
 11
41
 21
209
  0
LINE
  8
0
 10
167
 20
209
 11
147
 21
209
  0
LINE
  8
0
 10
147
 20
209
 11
147
 21
189
  0
LINE
  8
0
 10
147
 20
189
 11
167
 21
189
  0
LINE
  8
0
 10
167
 20
189
 11
167
 21
209
  0
LINE
  8
0
 10
188
 20
209
 11
168
 21
209
  0
LINE
  8
0
 10
168
 20
209
 11
168
 21
189
  0
LINE
  8
0
 10
168
 20
189
 11
188
 21
189
  0
LINE
  8
0
 10
188
 20
189
 11
188
 21
209
  0
LINE
  8
0
 10
209
 20
209
 11
189
 21
209
  0
LINE
  8
0
 10
189
 20
209
 11
189
 21
189
  0
LINE
  8
0
 10
189
 20
189
 11
209
 21
189
  0
LINE
  8
0
 10
209
 20
189
 11
209
 21
209
  0
LINE
  8
0
 10
20
 20
209
 11
0
 21
209
  0
LINE
  8
0
 10
0
 20
209
 11
0
 21
189
  0
LINE
  8
0
 10
0
 20
189
 11
20
 21
189
  0
LINE
  8
0
 10
20
 20
189
 11
20
 21
209
  0
LINE
  8
0
 10
167
 20
188
 11
147
 21
188
  0
LINE
  8
0
 10
147
 20
188
 11
147
 21
168
  0
LINE
  8
0
 10
147
 20
168
 11
167
 21
168
  0
LINE
  8
0
 10
167
 20
168
 11
167
 21
188
  0
LINE
  8
0
 10
146
 20
188
 11
126
 21
188
  0
LINE
  8
0
 10
126
 20
188
 11
126
 21
168
  0
LINE
  8
0
 10
126
 20
168
 11
146
 21
168
  0
LINE
  8
0
 10
146
 20
168
 11
146
 21
188
  0
LINE
  8
0
 10
20
 20
188
 11
0
 21
188
  0
LINE
  8
0
 10
0
 20
188
 11
0
 21
168
  0
LINE
  8
0
 10
0
 20
168
 11
20
 21
168
  0
LINE
  8
0
 10
20
 20
168
 11
20
 21
188
  0
LINE
  8
0
 10
125
 20
188
 11
105
 21
188
  0
LINE
  8
0
 10
105
 20
188
 11
105
 21
168
  0
LINE
  8
0
 10
105
 20
168
 11
125
 21
168
  0
LINE
  8
0
 10
125
 20
168
 11
125
 21
188
  0
LINE
  8
0
 10
188
 20
188
 11
168
 21
188
  0
LINE
  8
0
 10
168
 20
188
 11
168
 21
168
  0
LINE
  8
0
 10
168
 20
168
 11
188
 21
168
  0
LINE
  8
0
 10
188
 20
168
 11
188
 21
188
  0
LINE
  8
0
 10
104
 20
188
 11
84
 21
188
  0
LINE
  8
0
 10
84
 20
188
 11
84
 21
168
  0
LINE
  8
0
 10
84
 20
168
 11
104
 21
168
  0
LINE
  8
0
 10
104
 20
168
 11
104
 21
188
  0
LINE
  8
0
 10
83
 20
188
 11
63
 21
188
  0
LINE
  8
0
 10
63
 20
188
 11
63
 21
168
  0
LINE
  8
0
 10
63
 20
168
 11
83
 21
168
  0
LINE
  8
0
 10
83
 20
168
 11
83
 21
188
  0
LINE
  8
0
 10
209
 20
188
 11
189
 21
188
  0
LINE
  8
0
 10
189
 20
188
 11
189
 21
168
  0
LINE
  8
0
 10
189
 20
168
 11
209
 21
168
  0
LINE
  8
0
 10
209
 20
168
 11
209
 21
188
  0
LINE
  8
0
 10
62
 20
188
 11
42
 21
188
  0
LINE
  8
0
 10
42
 20
188
 11
42
 21
168
  0
LINE
  8
0
 10
42
 20
168
 11
62
 21
168
  0
LINE
  8
0
 10
62
 20
168
 11
62
 21
188
  0
LINE
  8
0
 10
41
 20
188
 11
21
 21
188
  0
LINE
  8
0
 10
21
 20
188
 11
21
 21
168
  0
LINE
  8
0
 10
21
 20
168
 11
41
 21
168
  0
LINE
  8
0
 10
41
 20
168
 11
41
 21
188
  0
LINE
  8
0
 10
20
 20
167
 11
0
 21
167
  0
LINE
  8
0
 10
0
 20
167
 11
0
 21
147
  0
LINE
  8
0
 10
0
 20
147
 11
20
 21
147
  0
LINE
  8
0
 10
20
 20
147
 11
20
 21
167
  0
LINE
  8
0
 10
104
 20
167
 11
84
 21
167
  0
LINE
  8
0
 10
84
 20
167
 11
84
 21
147
  0
LINE
  8
0
 10
84
 20
147
 11
104
 21
147
  0
LINE
  8
0
 10
104
 20
147
 11
104
 21
167
  0
LINE
  8
0
 10
167
 20
167
 11
147
 21
167
  0
LINE
  8
0
 10
147
 20
167
 11
147
 21
147
  0
LINE
  8
0
 10
147
 20
147
 11
167
 21
147
  0
LINE
  8
0
 10
167
 20
147
 11
167
 21
167
  0
LINE
  8
0
 10
146
 20
167
 11
126
 21
167
  0
LINE
  8
0
 10
126
 20
167
 11
126
 21
147
  0
LINE
  8
0
 10
126
 20
147
 11
146
 21
147
  0
LINE
  8
0
 10
146
 20
147
 11
146
 21
167
  0
LINE
  8
0
 10
83
 20
167
 11
63
 21
167
  0
LINE
  8
0
 10
63
 20
167
 11
63
 21
147
  0
LINE
  8
0
 10
63
 20
147
 11
83
 21
147
  0
LINE
  8
0
 10
83
 20
147
 11
83
 21
167
  0
LINE
  8
0
 10
41
 20
167
 11
21
 21
167
  0
LINE
  8
0
 10
21
 20
167
 11
21
 21
147
  0
LINE
  8
0
 10
21
 20
147
 11
41
 21
147
  0
LINE
  8
0
 10
41
 20
147
 11
41
 21
167
  0
LINE
  8
0
 10
188
 20
167
 11
168
 21
167
  0
LINE
  8
0
 10
168
 20
167
 11
168
 21
147
  0
LINE
  8
0
 10
168
 20
147
 11
188
 21
147
  0
LINE
  8
0
 10
188
 20
147
 11
188
 21
167
  0
LINE
  8
0
 10
209
 20
167
 11
189
 21
167
  0
LINE
  8
0
 10
189
 20
167
 11
189
 21
147
  0
LINE
  8
0
 10
189
 20
147
 11
209
 21
147
  0
LINE
  8
0
 10
209
 20
147
 11
209
 21
167
  0
LINE
  8
0
 10
62
 20
167
 11
42
 21
167
  0
LINE
  8
0
 10
42
 20
167
 11
42
 21
147
  0
LINE
  8
0
 10
42
 20
147
 11
62
 21
147
  0
LINE
  8
0
 10
62
 20
147
 11
62
 21
167
  0
LINE
  8
0
 10
125
 20
167
 11
105
 21
167
  0
LINE
  8
0
 10
105
 20
167
 11
105
 21
147
  0
LINE
  8
0
 10
105
 20
147
 11
125
 21
147
  0
LINE
  8
0
 10
125
 20
147
 11
125
 21
167
  0
LINE
  8
0
 10
209
 20
146
 11
189
 21
146
  0
LINE
  8
0
 10
189
 20
146
 11
189
 21
126
  0
LINE
  8
0
 10
189
 20
126
 11
209
 21
126
  0
LINE
  8
0
 10
209
 20
126
 11
209
 21
146
  0
LINE
  8
0
 10
104
 20
146
 11
84
 21
146
  0
LINE
  8
0
 10
84
 20
146
 11
84
 21
126
  0
LINE
  8
0
 10
84
 20
126
 11
104
 21
126
  0
LINE
  8
0
 10
104
 20
126
 11
104
 21
146
  0
LINE
  8
0
 10
41
 20
146
 11
21
 21
146
  0
LINE
  8
0
 10
21
 20
146
 11
21
 21
126
  0
LINE
  8
0
 10
21
 20
126
 11
41
 21
126
  0
LINE
  8
0
 10
41
 20
126
 11
41
 21
146
  0
LINE
  8
0
 10
20
 20
146
 11
0
 21
146
  0
LINE
  8
0
 10
0
 20
146
 11
0
 21
126
  0
LINE
  8
0
 10
0
 20
126
 11
20
 21
126
  0
LINE
  8
0
 10
20
 20
126
 11
20
 21
146
  0
LINE
  8
0
 10
167
 20
146
 11
147
 21
146
  0
LINE
  8
0
 10
147
 20
146
 11
147
 21
126
  0
LINE
  8
0
 10
147
 20
126
 11
167
 21
126
  0
LINE
  8
0
 10
167
 20
126
 11
167
 21
146
  0
LINE
  8
0
 10
146
 20
146
 11
126
 21
146
  0
LINE
  8
0
 10
126
 20
146
 11
126
 21
126
  0
LINE
  8
0
 10
126
 20
126
 11
146
 21
126
  0
LINE
  8
0
 10
146
 20
126
 11
146
 21
146
  0
LINE
  8
0
 10
83
 20
146
 11
63
 21
146
  0
LINE
  8
0
 10
63
 20
146
 11
63
 21
126
  0
LINE
  8
0
 10
63
 20
126
 11
83
 21
126
  0
LINE
  8
0
 10
83
 20
126
 11
83
 21
146
  0
LINE
  8
0
 10
62
 20
146
 11
42
 21
146
  0
LINE
  8
0
 10
42
 20
146
 11
42
 21
126
  0
LINE
  8
0
 10
42
 20
126
 11
62
 21
126
  0
LINE
  8
0
 10
62
 20
126
 11
62
 21
146
  0
LINE
  8
0
 10
125
 20
146
 11
105
 21
146
  0
LINE
  8
0
 10
105
 20
146
 11
105
 21
126
  0
LINE
  8
0
 10
105
 20
126
 11
125
 21
126
  0
LINE
  8
0
 10
125
 20
126
 11
125
 21
146
  0
LINE
  8
0
 10
188
 20
146
 11
168
 21
146
  0
LINE
  8
0
 10
168
 20
146
 11
168
 21
126
  0
LINE
  8
0
 10
168
 20
126
 11
188
 21
126
  0
LINE
  8
0
 10
188
 20
126
 11
188
 21
146
  0
LINE
  8
0
 10
146
 20
125
 11
126
 21
125
  0
LINE
  8
0
 10
126
 20
125
 11
126
 21
105
  0
LINE
  8
0
 10
126
 20
105
 11
146
 21
105
  0
LINE
  8
0
 10
146
 20
105
 11
146
 21
125
  0
LINE
  8
0
 10
125
 20
125
 11
105
 21
125
  0
LINE
  8
0
 10
105
 20
125
 11
105
 21
105
  0
LINE
  8
0
 10
105
 20
105
 11
125
 21
105
  0
LINE
  8
0
 10
125
 20
105
 11
125
 21
125
  0
LINE
  8
0
 10
209
 20
125
 11
189
 21
125
  0
LINE
  8
0
 10
189
 20
125
 11
189
 21
105
  0
LINE
  8
0
 10
189
 20
105
 11
209
 21
105
  0
LINE
  8
0
 10
209
 20
105
 11
209
 21
125
  0
LINE
  8
0
 10
167
 20
125
 11
147
 21
125
  0
LINE
  8
0
 10
147
 20
125
 11
147
 21
105
  0
LINE
  8
0
 10
147
 20
105
 11
167
 21
105
  0
LINE
  8
0
 10
167
 20
105
 11
167
 21
125
  0
LINE
  8
0
 10
104
 20
125
 11
84
 21
125
  0
LINE
  8
0
 10
84
 20
125
 11
84
 21
105
  0
LINE
  8
0
 10
84
 20
105
 11
104
 21
105
  0
LINE
  8
0
 10
104
 20
105
 11
104
 21
125
  0
LINE
  8
0
 10
41
 20
125
 11
21
 21
125
  0
LINE
  8
0
 10
21
 20
125
 11
21
 21
105
  0
LINE
  8
0
 10
21
 20
105
 11
41
 21
105
  0
LINE
  8
0
 10
41
 20
105
 11
41
 21
125
  0
LINE
  8
0
 10
83
 20
125
 11
63
 21
125
  0
LINE
  8
0
 10
63
 20
125
 11
63
 21
105
  0
LINE
  8
0
 10
63
 20
105
 11
83
 21
105
  0
LINE
  8
0
 10
83
 20
105
 11
83
 21
125
  0
LINE
  8
0
 10
20
 20
125
 11
0
 21
125
  0
LINE
  8
0
 10
0
 20
125
 11
0
 21
105
  0
LINE
  8
0
 10
0
 20
105
 11
20
 21
105
  0
LINE
  8
0
 10
20
 20
105
 11
20
 21
125
  0
LINE
  8
0
 10
188
 20
125
 11
168
 21
125
  0
LINE
  8
0
 10
168
 20
125
 11
168
 21
105
  0
LINE
  8
0
 10
168
 20
105
 11
188
 21
105
  0
LINE
  8
0
 10
188
 20
105
 11
188
 21
125
  0
LINE
  8
0
 10
62
 20
125
 11
42
 21
125
  0
LINE
  8
0
 10
42
 20
125
 11
42
 21
105
  0
LINE
  8
0
 10
42
 20
105
 11
62
 21
105
  0
LINE
  8
0
 10
62
 20
105
 11
62
 21
125
  0
LINE
  8
0
 10
146
 20
104
 11
126
 21
104
  0
LINE
  8
0
 10
126
 20
104
 11
126
 21
84
  0
LINE
  8
0
 10
126
 20
84
 11
146
 21
84
  0
LINE
  8
0
 10
146
 20
84
 11
146
 21
104
  0
LINE
  8
0
 10
125
 20
104
 11
105
 21
104
  0
LINE
  8
0
 10
105
 20
104
 11
105
 21
84
  0
LINE
  8
0
 10
105
 20
84
 11
125
 21
84
  0
LINE
  8
0
 10
125
 20
84
 11
125
 21
104
  0
LINE
  8
0
 10
167
 20
104
 11
147
 21
104
  0
LINE
  8
0
 10
147
 20
104
 11
147
 21
84
  0
LINE
  8
0
 10
147
 20
84
 11
167
 21
84
  0
LINE
  8
0
 10
167
 20
84
 11
167
 21
104
  0
LINE
  8
0
 10
20
 20
104
 11
0
 21
104
  0
LINE
  8
0
 10
0
 20
104
 11
0
 21
84
  0
LINE
  8
0
 10
0
 20
84
 11
20
 21
84
  0
LINE
  8
0
 10
20
 20
84
 11
20
 21
104
  0
LINE
  8
0
 10
188
 20
104
 11
168
 21
104
  0
LINE
  8
0
 10
168
 20
104
 11
168
 21
84
  0
LINE
  8
0
 10
168
 20
84
 11
188
 21
84
  0
LINE
  8
0
 10
188
 20
84
 11
188
 21
104
  0
LINE
  8
0
 10
209
 20
104
 11
189
 21
104
  0
LINE
  8
0
 10
189
 20
104
 11
189
 21
84
  0
LINE
  8
0
 10
189
 20
84
 11
209
 21
84
  0
LINE
  8
0
 10
209
 20
84
 11
209
 21
104
  0
LINE
  8
0
 10
62
 20
104
 11
42
 21
104
  0
LINE
  8
0
 10
42
 20
104
 11
42
 21
84
  0
LINE
  8
0
 10
42
 20
84
 11
62
 21
84
  0
LINE
  8
0
 10
62
 20
84
 11
62
 21
104
  0
LINE
  8
0
 10
83
 20
104
 11
63
 21
104
  0
LINE
  8
0
 10
63
 20
104
 11
63
 21
84
  0
LINE
  8
0
 10
63
 20
84
 11
83
 21
84
  0
LINE
  8
0
 10
83
 20
84
 11
83
 21
104
  0
LINE
  8
0
 10
104
 20
104
 11
84
 21
104
  0
LINE
  8
0
 10
84
 20
104
 11
84
 21
84
  0
LINE
  8
0
 10
84
 20
84
 11
104
 21
84
  0
LINE
  8
0
 10
104
 20
84
 11
104
 21
104
  0
LINE
  8
0
 10
41
 20
104
 11
21
 21
104
  0
LINE
  8
0
 10
21
 20
104
 11
21
 21
84
  0
LINE
  8
0
 10
21
 20
84
 11
41
 21
84
  0
LINE
  8
0
 10
41
 20
84
 11
41
 21
104
  0
LINE
  8
0
 10
104
 20
83
 11
84
 21
83
  0
LINE
  8
0
 10
84
 20
83
 11
84
 21
63
  0
LINE
  8
0
 10
84
 20
63
 11
104
 21
63
  0
LINE
  8
0
 10
104
 20
63
 11
104
 21
83
  0
LINE
  8
0
 10
83
 20
83
 11
63
 21
83
  0
LINE
  8
0
 10
63
 20
83
 11
63
 21
63
  0
LINE
  8
0
 10
63
 20
63
 11
83
 21
63
  0
LINE
  8
0
 10
83
 20
63
 11
83
 21
83
  0
LINE
  8
0
 10
167
 20
83
 11
147
 21
83
  0
LINE
  8
0
 10
147
 20
83
 11
147
 21
63
  0
LINE
  8
0
 10
147
 20
63
 11
167
 21
63
  0
LINE
  8
0
 10
167
 20
63
 11
167
 21
83
  0
LINE
  8
0
 10
20
 20
83
 11
0
 21
83
  0
LINE
  8
0
 10
0
 20
83
 11
0
 21
63
  0
LINE
  8
0
 10
0
 20
63
 11
20
 21
63
  0
LINE
  8
0
 10
20
 20
63
 11
20
 21
83
  0
LINE
  8
0
 10
41
 20
83
 11
21
 21
83
  0
LINE
  8
0
 10
21
 20
83
 11
21
 21
63
  0
LINE
  8
0
 10
21
 20
63
 11
41
 21
63
  0
LINE
  8
0
 10
41
 20
63
 11
41
 21
83
  0
LINE
  8
0
 10
146
 20
83
 11
126
 21
83
  0
LINE
  8
0
 10
126
 20
83
 11
126
 21
63
  0
LINE
  8
0
 10
126
 20
63
 11
146
 21
63
  0
LINE
  8
0
 10
146
 20
63
 11
146
 21
83
  0
LINE
  8
0
 10
62
 20
83
 11
42
 21
83
  0
LINE
  8
0
 10
42
 20
83
 11
42
 21
63
  0
LINE
  8
0
 10
42
 20
63
 11
62
 21
63
  0
LINE
  8
0
 10
62
 20
63
 11
62
 21
83
  0
LINE
  8
0
 10
188
 20
83
 11
168
 21
83
  0
LINE
  8
0
 10
168
 20
83
 11
168
 21
63
  0
LINE
  8
0
 10
168
 20
63
 11
188
 21
63
  0
LINE
  8
0
 10
188
 20
63
 11
188
 21
83
  0
LINE
  8
0
 10
209
 20
83
 11
189
 21
83
  0
LINE
  8
0
 10
189
 20
83
 11
189
 21
63
  0
LINE
  8
0
 10
189
 20
63
 11
209
 21
63
  0
LINE
  8
0
 10
209
 20
63
 11
209
 21
83
  0
LINE
  8
0
 10
125
 20
83
 11
105
 21
83
  0
LINE
  8
0
 10
105
 20
83
 11
105
 21
63
  0
LINE
  8
0
 10
105
 20
63
 11
125
 21
63
  0
LINE
  8
0
 10
125
 20
63
 11
125
 21
83
  0
LINE
  8
0
 10
125
 20
62
 11
105
 21
62
  0
LINE
  8
0
 10
105
 20
62
 11
105
 21
42
  0
LINE
  8
0
 10
105
 20
42
 11
125
 21
42
  0
LINE
  8
0
 10
125
 20
42
 11
125
 21
62
  0
LINE
  8
0
 10
62
 20
62
 11
42
 21
62
  0
LINE
  8
0
 10
42
 20
62
 11
42
 21
42
  0
LINE
  8
0
 10
42
 20
42
 11
62
 21
42
  0
LINE
  8
0
 10
62
 20
42
 11
62
 21
62
  0
LINE
  8
0
 10
188
 20
62
 11
168
 21
62
  0
LINE
  8
0
 10
168
 20
62
 11
168
 21
42
  0
LINE
  8
0
 10
168
 20
42
 11
188
 21
42
  0
LINE
  8
0
 10
188
 20
42
 11
188
 21
62
  0
LINE
  8
0
 10
167
 20
62
 11
147
 21
62
  0
LINE
  8
0
 10
147
 20
62
 11
147
 21
42
  0
LINE
  8
0
 10
147
 20
42
 11
167
 21
42
  0
LINE
  8
0
 10
167
 20
42
 11
167
 21
62
  0
LINE
  8
0
 10
41
 20
62
 11
21
 21
62
  0
LINE
  8
0
 10
21
 20
62
 11
21
 21
42
  0
LINE
  8
0
 10
21
 20
42
 11
41
 21
42
  0
LINE
  8
0
 10
41
 20
42
 11
41
 21
62
  0
LINE
  8
0
 10
20
 20
62
 11
0
 21
62
  0
LINE
  8
0
 10
0
 20
62
 11
0
 21
42
  0
LINE
  8
0
 10
0
 20
42
 11
20
 21
42
  0
LINE
  8
0
 10
20
 20
42
 11
20
 21
62
  0
LINE
  8
0
 10
146
 20
62
 11
126
 21
62
  0
LINE
  8
0
 10
126
 20
62
 11
126
 21
42
  0
LINE
  8
0
 10
126
 20
42
 11
146
 21
42
  0
LINE
  8
0
 10
146
 20
42
 11
146
 21
62
  0
LINE
  8
0
 10
209
 20
62
 11
189
 21
62
  0
LINE
  8
0
 10
189
 20
62
 11
189
 21
42
  0
LINE
  8
0
 10
189
 20
42
 11
209
 21
42
  0
LINE
  8
0
 10
209
 20
42
 11
209
 21
62
  0
LINE
  8
0
 10
83
 20
62
 11
63
 21
62
  0
LINE
  8
0
 10
63
 20
62
 11
63
 21
42
  0
LINE
  8
0
 10
63
 20
42
 11
83
 21
42
  0
LINE
  8
0
 10
83
 20
42
 11
83
 21
62
  0
LINE
  8
0
 10
104
 20
62
 11
84
 21
62
  0
LINE
  8
0
 10
84
 20
62
 11
84
 21
42
  0
LINE
  8
0
 10
84
 20
42
 11
104
 21
42
  0
LINE
  8
0
 10
104
 20
42
 11
104
 21
62
  0
LINE
  8
0
 10
62
 20
41
 11
42
 21
41
  0
LINE
  8
0
 10
42
 20
41
 11
42
 21
21
  0
LINE
  8
0
 10
42
 20
21
 11
62
 21
21
  0
LINE
  8
0
 10
62
 20
21
 11
62
 21
41
  0
LINE
  8
0
 10
41
 20
41
 11
21
 21
41
  0
LINE
  8
0
 10
21
 20
41
 11
21
 21
21
  0
LINE
  8
0
 10
21
 20
21
 11
41
 21
21
  0
LINE
  8
0
 10
41
 20
21
 11
41
 21
41
  0
LINE
  8
0
 10
125
 20
41
 11
105
 21
41
  0
LINE
  8
0
 10
105
 20
41
 11
105
 21
21
  0
LINE
  8
0
 10
105
 20
21
 11
125
 21
21
  0
LINE
  8
0
 10
125
 20
21
 11
125
 21
41
  0
LINE
  8
0
 10
188
 20
41
 11
168
 21
41
  0
LINE
  8
0
 10
168
 20
41
 11
168
 21
21
  0
LINE
  8
0
 10
168
 20
21
 11
188
 21
21
  0
LINE
  8
0
 10
188
 20
21
 11
188
 21
41
  0
LINE
  8
0
 10
20
 20
41
 11
0
 21
41
  0
LINE
  8
0
 10
0
 20
41
 11
0
 21
21
  0
LINE
  8
0
 10
0
 20
21
 11
20
 21
21
  0
LINE
  8
0
 10
20
 20
21
 11
20
 21
41
  0
LINE
  8
0
 10
104
 20
41
 11
84
 21
41
  0
LINE
  8
0
 10
84
 20
41
 11
84
 21
21
  0
LINE
  8
0
 10
84
 20
21
 11
104
 21
21
  0
LINE
  8
0
 10
104
 20
21
 11
104
 21
41
  0
LINE
  8
0
 10
146
 20
41
 11
126
 21
41
  0
LINE
  8
0
 10
126
 20
41
 11
126
 21
21
  0
LINE
  8
0
 10
126
 20
21
 11
146
 21
21
  0
LINE
  8
0
 10
146
 20
21
 11
146
 21
41
  0
LINE
  8
0
 10
167
 20
41
 11
147
 21
41
  0
LINE
  8
0
 10
147
 20
41
 11
147
 21
21
  0
LINE
  8
0
 10
147
 20
21
 11
167
 21
21
  0
LINE
  8
0
 10
167
 20
21
 11
167
 21
41
  0
LINE
  8
0
 10
209
 20
41
 11
189
 21
41
  0
LINE
  8
0
 10
189
 20
41
 11
189
 21
21
  0
LINE
  8
0
 10
189
 20
21
 11
209
 21
21
  0
LINE
  8
0
 10
209
 20
21
 11
209
 21
41
  0
LINE
  8
0
 10
83
 20
41
 11
63
 21
41
  0
LINE
  8
0
 10
63
 20
41
 11
63
 21
21
  0
LINE
  8
0
 10
63
 20
21
 11
83
 21
21
  0
LINE
  8
0
 10
83
 20
21
 11
83
 21
41
  0
LINE
  8
0
 10
41
 20
20
 11
21
 21
20
  0
LINE
  8
0
 10
21
 20
20
 11
21
 21
0
  0
LINE
  8
0
 10
21
 20
0
 11
41
 21
0
  0
LINE
  8
0
 10
41
 20
0
 11
41
 21
20
  0
LINE
  8
0
 10
209
 20
20
 11
189
 21
20
  0
LINE
  8
0
 10
189
 20
20
 11
189
 21
0
  0
LINE
  8
0
 10
189
 20
0
 11
209
 21
0
  0
LINE
  8
0
 10
209
 20
0
 11
209
 21
20
  0
LINE
  8
0
 10
188
 20
20
 11
168
 21
20
  0
LINE
  8
0
 10
168
 20
20
 11
168
 21
0
  0
LINE
  8
0
 10
168
 20
0
 11
188
 21
0
  0
LINE
  8
0
 10
188
 20
0
 11
188
 21
20
  0
LINE
  8
0
 10
167
 20
20
 11
147
 21
20
  0
LINE
  8
0
 10
147
 20
20
 11
147
 21
0
  0
LINE
  8
0
 10
147
 20
0
 11
167
 21
0
  0
LINE
  8
0
 10
167
 20
0
 11
167
 21
20
  0
LINE
  8
0
 10
146
 20
20
 11
126
 21
20
  0
LINE
  8
0
 10
126
 20
20
 11
126
 21
0
  0
LINE
  8
0
 10
126
 20
0
 11
146
 21
0
  0
LINE
  8
0
 10
146
 20
0
 11
146
 21
20
  0
LINE
  8
0
 10
20
 20
20
 11
0
 21
20
  0
LINE
  8
0
 10
0
 20
20
 11
0
 21
0
  0
LINE
  8
0
 10
0
 20
0
 11
20
 21
0
  0
LINE
  8
0
 10
20
 20
0
 11
20
 21
20
  0
LINE
  8
0
 10
125
 20
20
 11
105
 21
20
  0
LINE
  8
0
 10
105
 20
20
 11
105
 21
0
  0
LINE
  8
0
 10
105
 20
0
 11
125
 21
0
  0
LINE
  8
0
 10
125
 20
0
 11
125
 21
20
  0
LINE
  8
0
 10
104
 20
20
 11
84
 21
20
  0
LINE
  8
0
 10
84
 20
20
 11
84
 21
0
  0
LINE
  8
0
 10
84
 20
0
 11
104
 21
0
  0
LINE
  8
0
 10
104
 20
0
 11
104
 21
20
  0
LINE
  8
0
 10
83
 20
20
 11
63
 21
20
  0
LINE
  8
0
 10
63
 20
20
 11
63
 21
0
  0
LINE
  8
0
 10
63
 20
0
 11
83
 21
0
  0
LINE
  8
0
 10
83
 20
0
 11
83
 21
20
  0
LINE
  8
0
 10
62
 20
20
 11
42
 21
20
  0
LINE
  8
0
 10
42
 20
20
 11
42
 21
0
  0
LINE
  8
0
 10
42
 20
0
 11
62
 21
0
  0
LINE
  8
0
 10
62
 20
0
 11
62
 21
20
  0
ENDSEC
  0
SECTION
  2
OBJECTS
  0
DICTIONARY
  0
ENDSEC
  0
EOF
