<?xml version="1.0" encoding="utf-8" ?>
<svg baseProfile="tiny" height="100%" version="1.2" width="100%" xmlns="http://www.w3.org/2000/svg" xmlns:ev="http://www.w3.org/2001/xml-events" xmlns:xlink="http://www.w3.org/1999/xlink"><defs /><line stroke="rgb(10%,10%,16%)" x1="0" x2="0" y1="0" y2="200" /><line stroke="rgb(10%,10%,16%)" x1="20" x2="20" y1="0" y2="200" /><line stroke="rgb(10%,10%,16%)" x1="40" x2="40" y1="0" y2="200" /><line stroke="rgb(10%,10%,16%)" x1="60" x2="60" y1="0" y2="200" /><line stroke="rgb(10%,10%,16%)" x1="80" x2="80" y1="0" y2="200" /><line stroke="rgb(10%,10%,16%)" x1="100" x2="100" y1="0" y2="200" /><line stroke="rgb(10%,10%,16%)" x1="120" x2="120" y1="0" y2="200" /><line stroke="rgb(10%,10%,16%)" x1="140" x2="140" y1="0" y2="200" /><line stroke="rgb(10%,10%,16%)" x1="160" x2="160" y1="0" y2="200" /><line stroke="rgb(10%,10%,16%)" x1="180" x2="180" y1="0" y2="200" /><line stroke="rgb(10%,10%,16%)" x1="200" x2="200" y1="0" y2="200" /><line stroke="rgb(10%,10%,16%)" x1="0" x2="200" y1="0" y2="0" /><line stroke="rgb(10%,10%,16%)" x1="0" x2="200" y1="20" y2="20" /><line stroke="rgb(10%,10%,16%)" x1="0" x2="200" y1="40" y2="40" /><line stroke="rgb(10%,10%,16%)" x1="0" x2="200" y1="60" y2="60" /><line stroke="rgb(10%,10%,16%)" x1="0" x2="200" y1="80" y2="80" /><line stroke="rgb(10%,10%,16%)" x1="0" x2="200" y1="100" y2="100" /><line stroke="rgb(10%,10%,16%)" x1="0" x2="200" y1="120" y2="120" /><line stroke="rgb(10%,10%,16%)" x1="0" x2="200" y1="140" y2="140" /><line stroke="rgb(10%,10%,16%)" x1="0" x2="200" y1="160" y2="160" /><line stroke="rgb(10%,10%,16%)" x1="0" x2="200" y1="180" y2="180" /><line stroke="rgb(10%,10%,16%)" x1="0" x2="200" y1="200" y2="200" /><text fill="red" x="0" y="0.2">A</text><text fill="red" x="0" y="0.2">A</text><text fill="red" x="0" y="0.2">A</text><text fill="red" x="0" y="0.2">A</text><text fill="red" x="0" y="0.2">A</text><text fill="red" x="0" y="0.2">A</text><text fill="red" x="0" y="0.2">A</text><text fill="red" x="0" y="0.2">A</text><text fill="red" x="0" y="0.2">A</text><text fill="red" x="0" y="0.2">A</text><text fill="red" x="0" y="0.2">A</text><text fill="red" x="0" y="0.2">A</text><text fill="red" x="0" y="0.2">A</text><text fill="red" x="0" y="0.2">A</text><text fill="red" x="0" y="0.2">A</text><text fill="red" x="0" y="0.2">A</text><text fill="red" x="0" y="0.2">A</text><text fill="red" x="0" y="0.2">A</text><text fill="red" x="0" y="0.2">A</text><text fill="red" x="0" y="0.2">A</text><text fill="red" x="0" y="0.2">A</text><text fill="red" x="0" y="0.2">A</text><text fill="red" x="0" y="0.2">A</text><text fill="red" x="0" y="0.2">A</text><text fill="red" x="0" y="0.2">A</text><text fill="red" x="0" y="0.2">A</text><text fill="red" x="0" y="0.2">A</text><text fill="red" x="0" y="0.2">A</text><text fill="red" x="0" y="0.2">A</text><text fill="red" x="0" y="0.2">A</text><text fill="red" x="0" y="0.2">A</text><text fill="red" x="0" y="0.2">A</text><text fill="red" x="0" y="0.2">A</text><text fill="red" x="0" y="0.2">A</text><text fill="red" x="0" y="0.2">A</text><text fill="red" x="0" y="0.2">A</text><text fill="red" x="0" y="0.2">A</text><text fill="red" x="0" y="0.2">A</text><text fill="red" x="0" y="0.2">A</text><text fill="red" x="0" y="0.2">A</text><text fill="red" x="0" y="0.2">A</text><text fill="red" x="0" y="0.2">A</text><text fill="red" x="0" y="0.2">A</text><text fill="red" x="0" y="0.2">A</text><text fill="red" x="0" y="0.2">A</text><text fill="red" x="0" y="0.2">A</text><text fill="red" x="0" y="0.2">A</text><text fill="red" x="0" y="0.2">A</text><text fill="red" x="0" y="0.2">A</text><text fill="red" x="0" y="0.2">A</text><text fill="red" x="0" y="0.2">A</text><text fill="red" x="0" y="0.2">A</text><text fill="red" x="0" y="0.2">A</text><text fill="red" x="0" y="0.2">A</text><text fill="red" x="0" y="0.2">A</text><text fill="red" x="0" y="0.2">A</text><text fill="red" x="0" y="0.2">A</text><text fill="red" x="0" y="0.2">A</text><text fill="red" x="0" y="0.2">A</text><text fill="red" x="0" y="0.2">A</text><text fill="red" x="0" y="0.2">A</text><text fill="red" x="0" y="0.2">A</text><text fill="red" x="0" y="0.2">A</text><text fill="red" x="0" y="0.2">A</text><text fill="red" x="0" y="0.2">A</text><text fill="red" x="0" y="0.2">A</text><text fill="red" x="0" y="0.2">A</text><text fill="red" x="0" y="0.2">A</text><text fill="red" x="0" y="0.2">A</text><text fill="red" x="0" y="0.2">A</text><text fill="red" x="0" y="0.2">A</text><text fill="red" x="0" y="0.2">A</text><text fill="red" x="0" y="0.2">A</text><text fill="red" x="0" y="0.2">A</text><text fill="red" x="0" y="0.2">A</text><text fill="red" x="0" y="0.2">A</text><text fill="red" x="0" y="0.2">A</text><text fill="red" x="0" y="0.2">A</text><text fill="red" x="0" y="0.2">A</text><text fill="red" x="0" y="0.2">A</text><text fill="red" x="0" y="0.2">A</text><text fill="red" x="0" y="0.2">A</text><text fill="red" x="0" y="0.2">A</text><text fill="red" x="0" y="0.2">A</text><text fill="red" x="0" y="0.2">A</text><text fill="red" x="0" y="0.2">A</text><text fill="red" x="0" y="0.2">A</text><text fill="red" x="0" y="0.2">A</text><text fill="red" x="0" y="0.2">A</text><text fill="red" x="0" y="0.2">A</text><text fill="red" x="0" y="0.2">A</text><text fill="red" x="0" y="0.2">A</text><text fill="red" x="0" y="0.2">A</text><text fill="red" x="0" y="0.2">A</text><text fill="red" x="0" y="0.2">A</text><text fill="red" x="0" y="0.2">A</text><text fill="red" x="0" y="0.2">A</text><text fill="red" x="0" y="0.2">A</text><text fill="red" x="0" y="0.2">A</text><text fill="red" x="0" y="0.2">A</text></svg>